HIERARCHY
ROOT hip
{
  OFFSET 0.0 0.0 0.0
  CHANNELS 6 Xposition Yposition Zposition Zrotation Yrotation Xrotation
  JOINT torso
  {
    OFFSET 0.0 0.0 0.0
    CHANNELS 3 Zrotation Xrotation Yrotation
    JOINT neck
    {
      OFFSET -8.600829999999974 327.7417449999999 60.895874000000276
      CHANNELS 3 Zrotation Xrotation Yrotation
      JOINT head
      {
        OFFSET 0.7211610000001087 266.848846 239.12060599999995
        CHANNELS 3 Zrotation Xrotation Yrotation
        End Site
        {
          OFFSET 0.0 0.0 0.0
        }
      }
    }
    JOINT left_collar
    {
      OFFSET -8.600829999999974 327.7417449999999 60.895874000000276
      CHANNELS 3 Zrotation Xrotation Yrotation
      JOINT left_upper_arm
      {
        OFFSET -122.29599000000002 -5.21875 31.800903999999946
        CHANNELS 3 Zrotation Xrotation Yrotation
        JOINT left_forearm
        {
          OFFSET -195.94708199999997 63.423126000000025 226.99352999999996
          CHANNELS 3 Zrotation Xrotation Yrotation
          JOINT left_hand
          {
            OFFSET -232.19226099999992 28.282164999999964 80.86950699999989
            CHANNELS 3 Zrotation Xrotation Yrotation
            End Site
            {
              OFFSET 0.0 0.0 0.0
            }
          }
        }
      }
    }
    JOINT right_collar
    {
      OFFSET -8.600829999999974 327.7417449999999 60.895874000000276
      CHANNELS 3 Zrotation Xrotation Yrotation
      JOINT right_upper_arm
      {
        OFFSET 168.41261300000002 -11.913361000000066 -9.389160000000174
        CHANNELS 3 Zrotation Xrotation Yrotation
        JOINT right_forearm
        {
          OFFSET 213.49279800000005 104.82293699999997 83.52258300000017
          CHANNELS 3 Zrotation Xrotation Yrotation
          JOINT right_hand
          {
            OFFSET 222.067185 62.005675999999994 -110.52026300000034
            CHANNELS 3 Zrotation Xrotation Yrotation
            End Site
            {
              OFFSET 0.0 0.0 0.0
            }
          }
        }
      }
    }
  }
}
MOTION
Frames: 9
Frame Time: 0.01
-521.607072448258 133.4235205537062 370.9960948186601 7.059208922159452 -14.437646750295404 -6.850216834752409 -0.914270590613695 7.2366415337995615 0.30575299674099987 -8.83142095590264 -9.811755909638379 8.081240018073222 0.0 0.0 0.0 -0.7836910696936048 -0.36281430785032537 4.542893278019548 59.84164817688914 48.257169344972354 19.91879974704661 38.720726003719086 17.054328123220092 -13.74858183757626 0.0 120.0 0.0 -4.909104185134627 -0.37039688155813566 -0.8385827537070724 -65.74649127170915 24.615051628915598 16.35049386125687 -7.969419643379271 -17.209331243607714 83.39039893600739 0.0 0.0 0.0
-522.7356419990033 133.45765232225017 371.16906333890176 7.0858207178704635 -14.455753965065279 -6.52783307857903 -0.867884229664206 7.171063512378356 0.29872828354862185 -8.86513214017984 -9.648829285274125 8.10948704958144 0.0 0.0 0.0 -0.797002454800737 -0.3712490086908959 4.702990577585052 60.04170711510276 48.51243484301125 19.664720980801512 38.6850932893933 16.988489184107454 -13.575664444819216 0.0 120.0 0.0 -4.877926703070133 -0.388937606810976 -1.0187523692994291 -65.5798297656499 24.726785744339843 17.36802404812725 -6.887756331218771 -17.613853293088514 83.90525264979463 0.0 0.0 0.0
-523.8956677030102 133.47949714992694 371.3643667524448 7.113166259238867 -14.481720092178438 -6.199957159235636 -0.822182206549391 7.106757925119267 0.29176198707804335 -8.897569919959963 -9.480665008935633 8.13646867356651 0.0 0.0 0.0 -0.8064043069800735 -0.37904330363728495 4.870127315849592 60.24956139881362 48.777287537887496 19.403885261030794 38.643425942733266 16.919288557112242 -13.400612897340947 0.0 120.0 0.0 -4.841246067651586 -0.40687913993586944 -1.1977248386612516 -65.42043323929441 24.839577319909516 18.382411778859648 -5.720414090646841 -18.053453571108896 84.41059313505683 0.0 0.0 0.0
-525.0853625782235 133.48562847693685 371.5847480182562 7.141375370733932 -14.516921322392003 -5.8678055735686465 -0.7777714122907465 7.045009439627456 0.28495897180066476 -8.928014366208615 -9.308441434015158 8.161546160921487 0.0 0.0 0.0 -0.8119035178807268 -0.3861793243958345 5.043283592324738 60.4657129608841 49.050860758198326 19.138993421617133 38.5961811563706 16.847110437080506 -13.223866843952326 0.0 120.0 0.0 -4.799677296466009 -0.423999476035487 -1.3733897006617704 -65.27468868309701 24.95405339248523 19.378989270052106 -4.496260169864249 -18.52055151897445 84.90744239112992 0.0 0.0 0.0
-526.3021231152849 133.4726778687283 371.8326962644665 7.170556643584065 -14.562674405085582 -5.5327094653706546 -0.7352312905464092 6.987155567905565 0.2784248481277046 -8.955727280867995 -9.133463460328748 8.184067267408496 0.0 0.0 0.0 -0.8136201858867881 -0.3926593739632901 5.2212829479642195 60.69051714820072 49.33209816901657 18.87288057953234 38.54395729707274 16.772414554232586 -13.04590609537586 0.0 120.0 0.0 -4.754085802499867 -0.44009644445658486 -1.5435913477341434 -65.1496713825734 25.07123982981484 20.342087943555 -3.2509623343891185 -19.0051397630574 85.3980416359013 0.0 0.0 0.0
-527.5425931675866 133.43741710962846 372.11037739987785 7.200793443631214 -14.620198613182827 -5.196083081425447 -0.6950964378407739 6.934551256430015 0.2722627121406927 -8.979977345357076 -8.957138919695879 8.203388876652909 0.0 0.0 0.0 -0.8117838781695051 -0.3985050549071165 5.402827727420271 60.92416462588817 49.619779133851665 18.608427549790186 38.487476257177455 16.69572509933223 -12.867248426131118 0.0 120.0 0.0 -4.705579278240814 -0.4549952518558129 -1.7061788682601873 -65.05299333528947 25.19254611803578 21.255395448136557 -2.026526889329172 -19.49492806188791 85.88632027396903 0.0 0.0 0.0
-528.8027449718874 133.37684193414947 372.41956611765517 7.232142691945209 -14.690576998449218 -4.859390474605547 -0.6578422277701275 6.888530859293721 0.26656997475268096 -9.000064299689472 -8.780950390304838 8.21889860106792 0.0 0.0 0.0 -0.8067258890811978 -0.4037555836633616 5.586537013435624 61.16666520411887 49.912547598893504 18.34847082463103 38.42756247219448 16.617617928226323 -12.688446109264351 0.0 120.0 0.0 -4.655492234960478 -0.46855514867349685 -1.8590593170643093 -64.99261086630997 25.319703202476628 22.102349782845582 -0.8704758092854876 -19.975596743844 86.37819509280807 0.0 0.0 0.0
-530.0779744609297 133.28825533061533 372.7615808466519 7.264636503485298 -14.774718223699658 -4.524111993022912 -0.6238741634801285 6.8503690772746575 0.26143545562110676 -9.015341358215956 -8.606423641211137 8.23003463198702 0.0 0.0 0.0 -0.7988677564238492 -0.408465417098627 5.7709855609804395 61.417834442700816 50.20894331996169 18.095715406828983 38.365119431200554 16.538706428922836 -12.510080773731362 0.0 120.0 0.0 -4.605363437957227 -0.4806747784916615 -2.0002524782708626 -64.97659736086052 25.454651039552907 22.86655455930632 0.1653581410745064 -20.431112457217697 86.8815577184592 0.0 0.0 0.0
-531.3632078455646 133.16934818073577 373.13722348555086 7.298286626074066 -14.8733204054199 -4.191711995092529 -0.5935214354486265 6.821242548202551 0.25693690924923784 -9.025235240031384 -8.43509401396434 8.236303296502276 0.0 0.0 0.0 -0.7887065440789576 -0.4127013622765195 5.954742151361604 61.677284069743955 50.507434262631115 17.852654728771544 38.30110454170384 16.459626476312913 -12.332756321234386 0.0 120.0 0.0 -4.556906653260341 -0.4912958505078283 -2.1279450710708874 -65.01288856755251 25.59937780572706 23.532200279744682 1.0264052049762877 -20.84403763117657 87.40582418516355 0.0 0.0 0.0
